<?xml version="1.0" encoding="UTF-8" standalone="no"?>
<!DOCTYPE svg PUBLIC "-//W3C//DTD SVG 1.1//EN" "http://www.w3.org/Graphics/SVG/1.1/DTD/svg11.dtd">
<svg width="100%" height="100%" viewBox="0 0 176 173" version="1.1" xmlns="http://www.w3.org/2000/svg" xmlns:xlink="http://www.w3.org/1999/xlink" xml:space="preserve" xmlns:serif="http://www.serif.com/" style="fill-rule:evenodd;clip-rule:evenodd;">
    <g transform="matrix(1,0,0,1,-32928.8,-28118.2)">
        <g id="Artboard13" transform="matrix(0.941176,0,0,0.925134,2119.4,2323.67)">
            <rect x="32735" y="27882" width="187" height="187" style="fill:none;"/>
            <clipPath id="_clip1">
                <rect x="32735" y="27882" width="187" height="187"/>
            </clipPath>
            <g clip-path="url(#_clip1)">
                <g transform="matrix(1.0625,0,0,1.08092,32936.6,27881.1)">
                    <path d="M164.529,52.792L164.529,120.844C164.529,145.347 144.635,165.241 120.132,165.241L52.08,165.241C27.577,165.241 7.683,145.347 7.683,120.844L7.683,52.792C7.683,28.289 27.577,8.395 52.08,8.395L120.132,8.395C144.635,8.395 164.529,28.289 164.529,52.792Z" style="fill:none;stroke:white;stroke-width:15.18px;"/>
                </g>
                <g transform="matrix(1.0625,0,0,1.08092,32737,27881.7)">
                    <path d="M164.529,52.792L164.529,120.844C164.529,145.347 144.635,165.241 120.132,165.241L52.08,165.241C27.577,165.241 7.683,145.347 7.683,120.844L7.683,52.792C7.683,28.289 27.577,8.395 52.08,8.395L120.132,8.395C144.635,8.395 164.529,28.289 164.529,52.792Z" style="fill:none;stroke:white;stroke-width:15.18px;"/>
                </g>
                <g transform="matrix(1.0625,0,0,1.08092,-2251.86,-2261.21)">
                    <g transform="matrix(1,0,0,1,32930.7,27886.2)">
                        <path d="M104.323,87.121C104.584,85.628 105.665,84.411 107.117,83.977C108.568,83.542 110.14,83.965 111.178,85.069C118.49,92.847 131.296,106.469 138.034,113.637C138.984,114.647 139.343,116.076 138.983,117.415C138.623,118.754 137.595,119.811 136.267,120.208C127.471,122.841 111.466,127.633 102.67,130.266C101.342,130.664 99.903,130.345 98.867,129.425C97.83,128.504 97.344,127.112 97.582,125.747C99.274,116.055 102.488,97.637 104.323,87.121Z" style="fill:white;"/>
                    </g>
                    <g transform="matrix(1,0,0,1,32930.7,27886.2)">
                        <path d="M69.264,88.242L79.739,106.385C82.629,111.392 80.912,117.803 75.905,120.694L57.762,131.168C52.755,134.059 46.344,132.341 43.453,127.335L32.979,109.192C30.088,104.185 31.806,97.774 36.813,94.883L54.956,84.408C59.962,81.518 66.374,83.236 69.264,88.242Z" style="fill:white;"/>
                    </g>
                    <g transform="matrix(1,0,0,1,32930.7,27886.2)">
                        <path d="M86.541,79.464C98.111,79.464 107.49,70.084 107.49,58.514C107.49,46.944 98.111,37.565 86.541,37.565C74.971,37.565 65.591,46.944 65.591,58.514C65.591,70.084 74.971,79.464 86.541,79.464Z" style="fill:white;fill-rule:nonzero;"/>
                    </g>
                </g>
            </g>
        </g>
    </g>
</svg>
