<svg width="24" height="24" viewBox="0 0 24 24" fill="none" xmlns="http://www.w3.org/2000/svg">
<path d="M16.934 8.519a1.044 1.044 0 0 1 .303-.146l2.405-1.088a.37.37 0 0 1 .472.124c.098.14.075.333-.056.448l-1.968 1.724a.37.37 0 0 1-.596-.113l-.56-1.036zm-4.132 5.279l4.853.056a.37.37 0 0 1 .36.472l-.522 1.982a1.044 1.044 0 0 1-.169.303l-3.523-2.813zm-.421 6.394c-.045-.146-.067-.297-.067-.45V6.883a.37.37 0 0 1 .584-.303l11.729 8.678c.292.216.292.65 0 .866l-11.729 8.678a.37.37 0 0 1-.517-.112z" fill="#00AD9F"/>
<path d="M7.066 15.481a1.044 1.044 0 0 1-.303.146l-2.405 1.088a.37.37 0 0 1-.472-.124c-.098-.14-.075-.333.056-.448l1.968-1.724a.37.37 0 0 1 .596.113l.56 1.036z" fill="#014847"/>
<path d="M11.198 10.202l-4.853-.056a.37.37 0 0 1-.36-.472l.522-1.982a1.044 1.044 0 0 1 .169-.303l3.523 2.813z" fill="#00AD9F"/>
<path d="M11.619 3.806c.045.146.067.297.067.45v12.859a.37.37 0 0 1-.584.303L.373 8.74c-.292-.216-.292-.65 0-.866L11.102 3.806a.37.37 0 0 1 .517.112z" fill="#00596B"/>
</svg>